# xmcd
#
# Track frame offsets:
#	150
#	33778
#	55841
#	75539
#	96765
#	122907
#	145262
#	170738
#	192919
#	211873
#	232643
#	257425
#	278573
#	298824
#	316878
#
# Disc length: 4448 seconds
#
# Revision: 0
# Processed by: cddbd v1.5.1PL0 Copyright (c) Steve Scherf et al.
# Submitted via: EZCDDA 4.3.3.2
#
DISCID=c9115e0f
DTITLE=Elisa - Lotus
DYEAR=1900
DGENRE=
TTITLE0=Hallelujah
TTITLE1=Rock your soul
TTITLE2=Broken
TTITLE3=Femme fatale
TTITLE4=Sleeping in your hand
TTITLE5=Labyrinth
TTITLE6=Beautiful night
TTITLE7=Almeno tu nell'universo
TTITLE8=Electricity
TTITLE9=The marriage
TTITLE10=Yashal
TTITLE11=Stranger
TTITLE12=Luce (Tramonti a nord est)
TTITLE13=Gift
TTITLE14=Interlude
EXTD=
EXTT0=
EXTT1=
EXTT2=
EXTT3=
EXTT4=
EXTT5=
EXTT6=
EXTT7=
EXTT8=
EXTT9=
EXTT10=
EXTT11=
EXTT12=
EXTT13=
EXTT14=
PLAYORDER=
